<svg width="21" height="21" viewBox="0 0 21 21" fill="none" xmlns="http://www.w3.org/2000/svg">
  <path d="M9.5709 1.19133C9.91464 0.326847 11.0854 0.326848 11.4291 1.19133L13.4579 6.29368C13.6029 6.65813 13.9306 6.90714 14.3067 6.93868L19.5727 7.38029C20.4649 7.45511 20.8267 8.61981 20.1469 9.22891L16.1348 12.8239C15.8483 13.0807 15.723 13.4837 15.8106 13.8675L17.0364 19.2428C17.244 20.1535 16.2969 20.8734 15.533 20.3854L11.0246 17.5048C10.7025 17.2991 10.2975 17.2991 9.9755 17.5048L5.467 20.3854C4.70312 20.8734 3.75596 20.1535 3.96364 19.2428L5.18943 13.8675C5.27699 13.4837 5.15183 13.0807 4.86527 12.8239L0.853063 9.22891C0.173281 8.61981 0.535068 7.45511 1.42729 7.38029L6.69337 6.93868C7.06952 6.90714 7.39717 6.65813 7.54208 6.29368L9.5709 1.19133Z" fill="#080C09" />
</svg>