<svg width="21" height="21" viewBox="0 0 21 21" fill="none" xmlns="http://www.w3.org/2000/svg">
  <path fill-rule="evenodd" clip-rule="evenodd" d="M20.393 7.9851L20.4727 8.24826C20.5383 8.44688 20.4831 8.66762 20.3331 8.80615L15.4865 13.1745L16.9225 19.7218C16.9711 19.9311 16.8965 20.1508 16.733 20.2797L16.5136 20.4376C16.4284 20.5081 16.3227 20.5453 16.2145 20.5429C16.1231 20.5449 16.0332 20.5193 15.9552 20.4692L10.5002 16.964L5.07514 20.4692C4.99714 20.5193 4.90717 20.5449 4.81585 20.5429C4.7076 20.5453 4.60189 20.5081 4.51668 20.4376L4.26736 20.2797C4.10386 20.1508 4.02926 19.9311 4.07788 19.7218L5.51393 13.1745L0.677238 8.81667C0.519508 8.67897 0.459802 8.4521 0.52765 8.24826L0.637348 7.9851C0.695676 7.77713 0.871037 7.6299 1.07614 7.61669L7.44861 7.07985L9.89188 0.879924C9.97017 0.674026 10.1604 0.540173 10.3706 0.543086H10.6298C10.8381 0.538421 11.0263 0.673661 11.0985 0.879924L13.5817 7.07985L19.9542 7.61669C20.1593 7.6299 20.3346 7.77713 20.393 7.9851ZM14.6089 17.4482L13.492 12.5219L17.1519 9.22719L12.3551 8.8272L10.5002 4.13252V14.8061L14.6089 17.4482Z" fill="#080C09" />
</svg>